<svg xmlns="http://www.w3.org/2000/svg" width="50" height="38" viewBox="0 0 50 38" fill="none"><path d="M12.9805 26.02C12.9449 26.4535 12.5695 26.7804 12.1313 26.7402L9.47242 26.5235C8.94967 26.4848 8.4815 26.806 8.34049 27.3139L7.57701 30.0708C7.48052 30.419 7.16373 30.6483 6.81842 30.6483C6.74918 30.6483 6.67808 30.6383 6.60806 30.6195C6.18863 30.5034 5.94312 30.0698 6.05933 29.65L6.82271 26.8934C7.16842 25.6451 8.30758 24.8472 9.60064 24.9537L12.2595 25.1709C12.693 25.2061 13.0157 25.5868 12.9805 26.02ZM12.6961 19.8403L11.0539 19.7056C9.76324 19.5969 8.62086 20.3978 8.27603 21.6452L7.93355 22.8819C7.81734 23.3019 8.06275 23.7352 8.48228 23.8514C8.5524 23.8707 8.6232 23.88 8.69254 23.88C9.03746 23.88 9.35465 23.6519 9.45074 23.3027L9.79371 22.0648C9.93433 21.5567 10.3978 21.2317 10.9258 21.2751L12.5673 21.4096C13.001 21.4464 13.3811 21.1227 13.4165 20.6892C13.452 20.2553 13.1294 19.8754 12.6961 19.8403ZM13.6014 14.7781L12.5023 14.4872C11.3748 14.1908 10.1947 14.8572 9.86929 15.9758L9.53863 17.1111C9.41705 17.5284 9.6567 17.9658 10.0742 18.0875C10.1477 18.109 10.2223 18.1187 10.2952 18.1187C10.6361 18.1187 10.9505 17.8958 11.0506 17.5514L11.3815 16.4152C11.4705 16.111 11.7918 15.9267 12.0995 16.0101L13.1985 16.3008C13.6175 16.4097 14.0501 16.1614 14.1611 15.7411C14.2722 15.3205 14.0216 14.8892 13.6014 14.7781ZM15.5157 10.5223C15.061 10.1289 14.5034 9.95034 13.9054 10.0041C13.307 10.0586 12.7915 10.3342 12.4138 10.8027C12.1738 11.0999 11.945 11.4117 11.7332 11.7272C11.4912 12.0884 11.5878 12.5777 11.9491 12.8201C12.0836 12.9095 12.2363 12.9528 12.387 12.9528C12.6409 12.9528 12.8901 12.8305 13.0419 12.6036C13.2281 12.3266 13.4294 12.0523 13.6399 11.7907C13.7489 11.6562 13.8747 11.5889 14.0468 11.5727C14.2199 11.5573 14.3549 11.6007 14.4863 11.7142L15.1428 12.282C15.472 12.5662 15.9696 12.5293 16.2539 12.2C16.5379 11.8706 16.5015 11.3737 16.1722 11.0895L15.5157 10.5223ZM43.9407 29.65L43.1773 26.8935C42.8321 25.6452 41.6902 24.8481 40.399 24.9538L37.7402 25.171C37.3067 25.2061 36.9841 25.5869 37.0199 26.02C37.0551 26.4535 37.4333 26.7789 37.8689 26.7402L40.528 26.5235C41.0536 26.4838 41.5189 26.805 41.6595 27.3139L42.4234 30.0708C42.5195 30.4196 42.8364 30.6483 43.1817 30.6483C43.2509 30.6483 43.3221 30.6383 43.3923 30.6195C43.8112 30.5034 44.0568 30.0698 43.9407 29.65ZM39.0744 21.2752C39.6017 21.2352 40.0656 21.5568 40.2062 22.0655L40.5486 23.3028C40.6458 23.652 40.9621 23.8801 41.3075 23.8801C41.3772 23.8801 41.4476 23.8708 41.5182 23.8515C41.9374 23.7354 42.1833 23.302 42.067 22.882L41.724 21.6453C41.3789 20.3979 40.2364 19.5985 38.9457 19.7057L37.3041 19.8404C36.8705 19.8754 36.5479 20.2554 36.5832 20.6893C36.6193 21.1228 36.9966 21.4465 37.4323 21.4097L39.0744 21.2752ZM36.8019 16.3008L37.9003 16.0101C38.2079 15.9287 38.5299 16.111 38.6185 16.416L38.9493 17.5514C39.0495 17.8957 39.364 18.1187 39.7052 18.1187C39.7781 18.1187 39.8521 18.1089 39.9255 18.0875C40.3431 17.9658 40.5833 17.5284 40.4614 17.1111L40.1304 15.9758C39.8053 14.8572 38.6253 14.1916 37.4973 14.4872L36.399 14.7781C35.9781 14.8893 35.7277 15.3206 35.8389 15.7411C35.9502 16.1615 36.3829 16.4107 36.8019 16.3008ZM35.953 11.5727C36.1254 11.5889 36.2506 11.6562 36.3597 11.7907C36.5703 12.0524 36.7722 12.3266 36.9582 12.6036C37.1104 12.8305 37.3594 12.9528 37.6134 12.9528C37.7641 12.9528 37.9164 12.9095 38.0509 12.8201C38.4122 12.5777 38.5086 12.0884 38.2668 11.7272C38.0547 11.4118 37.8257 11.0999 37.5862 10.8019C37.2089 10.3342 36.693 10.0586 36.0945 10.0041C35.4961 9.94878 34.9392 10.1288 34.4842 10.5223L33.8272 11.0896C33.498 11.3738 33.462 11.8707 33.7464 12.2C34.0304 12.5294 34.5278 12.5663 34.8568 12.2821L35.5136 11.7143C35.6451 11.6007 35.7789 11.5573 35.953 11.5727ZM33.8409 9.37261C34.0516 8.99243 33.9142 8.51313 33.5341 8.30161C28.1898 5.34087 21.8097 5.34087 16.4663 8.30161C16.0857 8.51313 15.9479 8.99243 16.1589 9.37261C16.3698 9.75278 16.8485 9.89048 17.2297 9.67974C22.095 6.98315 27.9047 6.98315 32.7709 9.67974C32.8918 9.74692 33.0224 9.77817 33.1513 9.77817C33.4283 9.77808 33.6971 9.63257 33.8409 9.37261ZM46.8745 33.4841L44.4477 34.9952C44.438 35.0014 44.4294 35.0085 44.4197 35.015C44.4148 35.0182 44.4094 35.02 44.4042 35.0232L44.2691 35.1073L40.7915 37.147C40.1486 37.5243 39.4612 37.715 38.7486 37.715C38.1041 37.715 37.474 37.5581 36.8765 37.2469C35.6146 36.5917 34.8247 35.4029 34.7086 33.9856L33.3894 17.8623C32.5146 13.969 28.995 11.148 24.9998 11.148C21.0053 11.148 17.4852 13.969 16.6104 17.8623L15.2909 33.9857C15.1752 35.4031 14.3848 36.5912 13.1234 37.247C11.8733 37.8968 10.4229 37.8589 9.20885 37.1471L5.74879 35.1175L5.62984 35.0439C5.62535 35.0409 5.62047 35.0409 5.61656 35.0377C5.60181 35.0288 5.58844 35.0183 5.57398 35.0085L3.12506 33.4841C1.08961 32.2167 0.144978 29.8342 0.775056 27.5567L4.47896 14.1786C6.64 6.14536 13.9639 0.429248 22.288 0.284912H27.6984C36.0362 0.429346 43.3599 6.14546 45.5222 14.1843L49.225 27.5568C49.8553 29.8342 48.9108 32.2167 46.8745 33.4841ZM3.11783 31.4485C2.95006 30.6146 2.97252 29.7327 3.21324 28.8625L7.07974 14.8991C9.05308 7.77222 15.3474 2.98306 22.743 2.98306H22.7597C23.0598 2.46597 23.5345 2.07153 24.0897 1.86001H22.3016C14.6892 1.99224 7.97965 7.22827 5.99888 14.5939L2.29273 27.9773C1.94234 29.2436 2.26558 30.5176 3.11783 31.4485ZM43.4545 33.7588L43.6025 33.6667C45.0882 32.7104 45.7424 30.9942 45.2689 29.2829L41.4022 15.3196C39.6204 8.88247 33.9358 4.55835 27.2573 4.55835H26.7274C26.3777 4.55835 26.0692 4.32759 25.9714 3.99204C25.8464 3.56255 25.4467 3.26304 24.9997 3.26304C24.5531 3.26304 24.1536 3.56245 24.0288 3.99106C23.9309 4.32749 23.6225 4.55835 23.2724 4.55835H22.743C16.0638 4.55835 10.3796 8.88247 8.59752 15.3196L4.73131 29.2829C4.26187 30.9766 4.93863 32.7359 6.41363 33.6768L6.56363 33.7701L10.0051 35.7882C10.7638 36.2338 11.6166 36.2543 12.3973 35.8501C13.1794 35.443 13.6495 34.7354 13.7216 33.8575L15.0451 17.6803C15.048 17.6453 15.0532 17.6105 15.0607 17.5762C16.0728 12.9387 20.2533 9.57339 24.9999 9.57339C29.7469 9.57339 33.9267 12.9387 34.9393 17.5762C34.947 17.6106 34.9522 17.6453 34.9549 17.6803L36.2789 33.8575C36.3506 34.7354 36.821 35.443 37.6034 35.8501C37.9742 36.0421 38.3594 36.1398 38.7484 36.1398C39.177 36.1398 39.5968 36.0223 39.9946 35.7882L43.4545 33.7588ZM47.7068 27.9765L44.0032 14.5994C42.0204 7.22827 35.311 1.99214 27.6847 1.86001H25.9103C26.465 2.07153 26.9399 2.46597 27.2404 2.98306H27.2574C34.6526 2.98306 40.9468 7.77222 42.9202 14.8991L46.7864 28.8625C47.0275 29.7317 47.0495 30.6146 46.8814 31.4495C47.7338 30.5184 48.0577 29.2445 47.7068 27.9765Z" fill="white"></path></svg>